# xmcd
#
# Track frame offsets:
# 150
# 18706
# 37273
# 54149
# 83746
# 102961
# 120551
# 147570
# 157662
#
# Disc length: 2404 seconds
#
# Revision: 1
# Processed by: cddbd v1.5.2PL0 Copyright (c) Steve Scherf et al.
# Submitted via: CedeCatalogueitor 2.6.0.6 http://personales.ya.com/cdcatalogueitor
#
DISCID=6e096209
DTITLE=Forward, Russia - Dance To The Remix
DYEAR=1900
DGENRE=
TTITLE0=Eighteen (Napoleon IIIrd Remix)
TTITLE1=Eighteen (Yes Boss Remix)
TTITLE2=Nine (Rollercoaster Project Remix)
TTITLE3=Eighteen (FuRiEs Jacked An An Open Platform Remix)
TTITLE4=Nine (Napoleon IIIrd Remix)
TTITLE5=Nine (Duels Remix)
TTITLE6=Eighteen (colonopenbracke :( Remix)
TTITLE7=Nine (Moons Of Neptune Remix)
TTITLE8=Eighteen (Rollercoaster Project Remix)
EXTD=
EXTT0=
EXTT1=
EXTT2=
EXTT3=
EXTT4=
EXTT5=
EXTT6=
EXTT7=
EXTT8=
PLAYORDER=
